# Blender 5.1.1
# www.blender.org
mtllib curve_bat.mtl
g NurbsPath
cstype bspline
deg 1
v 1.000000 3.972754 0.000000
v 1.000000 3.972754 28.000000
v 13.000000 3.972754 28.000000
v 13.000000 3.972754 14.000000
v 28.000000 3.972754 13.999999
v 28.000000 3.972754 28.000000
v 28.000000 3.972754 28.000000
v 15.000001 3.972754 27.999998
v 15.000000 3.972754 -0.000000
v 28.000000 3.972754 0.000000
v 28.000000 3.972754 12.999999
v 2.000000 3.972754 13.000000
v 2.000000 3.972754 0.000000
v 13.000000 3.972754 0.000000
v 13.000001 3.972754 12.000000
v 3.000000 3.972754 12.000000
v 3.000000 3.972754 0.000000
v 1.000000 3.972754 0.000000
curv 0.000000 17.000000 -18 -17 -16 -15 -14 -13 -12 -11 -10 -9 -8 -7 -6 -5 -4 -3 -2 -1
parm u 0.000000 0.000000 1.000000 2.000000 3.000000 4.000000 5.000000 6.000000 7.000000 8.000000 9.000000 10.000000 11.000000 12.000000 13.000000 14.000000 15.000000 16.000000 17.000000 17.000000
end
