# Blender 5.1.1
# www.blender.org
mtllib curve.mtl
g NurbsPath
cstype bspline
deg 4
v -2.000000 0.000000 0.000000
v -1.000000 0.000000 0.000000
v 0.000000 0.000000 0.000000
v 1.000000 0.000000 0.000000
v 2.000000 0.000000 0.000000
v 2.000000 0.000000 -3.000000
v -4.000000 0.000000 -3.000000
v -4.000000 0.000000 2.000000
v -1.000000 0.000000 2.000000
v -1.000000 0.000000 -6.000000
v 3.000000 0.000000 -6.000000
v 3.000000 0.000000 -8.000000
v -2.000000 0.000000 -8.000000
v -2.000000 0.000000 0.000000
curv 0.000000 10.000000 -14 -13 -12 -11 -10 -9 -8 -7 -6 -5 -4 -3 -2 -1
parm u 0.000000 0.000000 0.000000 0.000000 0.000000 1.000000 2.000000 3.000000 4.000000 5.000000 6.000000 7.000000 8.000000 9.000000 10.000000 10.000000 10.000000 10.000000 10.000000
end
